<mxfile host="65bd71144e">
    <diagram id="WqRQE9WRR460Ull6HrEA" name="Page-1">
        <mxGraphModel dx="1056" dy="354" grid="1" gridSize="10" guides="1" tooltips="1" connect="1" arrows="1" fold="1" page="1" pageScale="1" pageWidth="827" pageHeight="1169" math="0" shadow="0">
            <root>
                <mxCell id="0"/>
                <mxCell id="1" parent="0"/>
                <mxCell id="32" value="Pedido" style="swimlane;whiteSpace=wrap;html=1;rounded=1;shadow=0;sketch=0;" parent="1" vertex="1">
                    <mxGeometry x="340" y="260" width="170" height="190" as="geometry">
                        <mxRectangle x="340" y="240" width="80" height="30" as="alternateBounds"/>
                    </mxGeometry>
                </mxCell>
                <mxCell id="34" value="id_pedido" style="text;strokeColor=none;align=center;fillColor=none;html=1;verticalAlign=middle;whiteSpace=wrap;rounded=0;shadow=0;sketch=0;" parent="32" vertex="1">
                    <mxGeometry x="20" y="40" width="60" height="30" as="geometry"/>
                </mxCell>
                <mxCell id="36" value="fk_id_produto" style="text;strokeColor=none;align=center;fillColor=none;html=1;verticalAlign=middle;whiteSpace=wrap;rounded=0;shadow=0;sketch=0;" parent="32" vertex="1">
                    <mxGeometry x="30" y="70" width="60" height="30" as="geometry"/>
                </mxCell>
                <mxCell id="37" value="fk_id_cliente" style="text;strokeColor=none;align=center;fillColor=none;html=1;verticalAlign=middle;whiteSpace=wrap;rounded=0;shadow=0;sketch=0;" parent="32" vertex="1">
                    <mxGeometry x="30" y="100" width="60" height="30" as="geometry"/>
                </mxCell>
                <mxCell id="48" value="+ quantidade" style="text;strokeColor=none;align=center;fillColor=none;html=1;verticalAlign=middle;whiteSpace=wrap;rounded=0;shadow=0;sketch=0;" parent="32" vertex="1">
                    <mxGeometry x="24" y="130" width="80" height="30" as="geometry"/>
                </mxCell>
                <mxCell id="69" value="+ valor_total" style="text;strokeColor=none;align=center;fillColor=none;html=1;verticalAlign=middle;whiteSpace=wrap;rounded=0;shadow=0;sketch=0;" parent="32" vertex="1">
                    <mxGeometry x="24" y="150" width="80" height="30" as="geometry"/>
                </mxCell>
                <mxCell id="60" value="" style="edgeStyle=elbowEdgeStyle;html=1;" parent="1" source="38" edge="1">
                    <mxGeometry relative="1" as="geometry">
                        <mxPoint x="330" y="335" as="targetPoint"/>
                        <Array as="points">
                            <mxPoint x="290" y="335"/>
                        </Array>
                    </mxGeometry>
                </mxCell>
                <mxCell id="38" value="Cliente" style="swimlane;whiteSpace=wrap;html=1;rounded=1;shadow=0;sketch=0;" parent="1" vertex="1">
                    <mxGeometry x="90" y="240" width="160" height="190" as="geometry">
                        <mxRectangle x="90" y="240" width="80" height="30" as="alternateBounds"/>
                    </mxGeometry>
                </mxCell>
                <mxCell id="39" value="id_cliente" style="text;strokeColor=none;align=center;fillColor=none;html=1;verticalAlign=middle;whiteSpace=wrap;rounded=0;shadow=0;sketch=0;" parent="38" vertex="1">
                    <mxGeometry x="10" y="40" width="60" height="30" as="geometry"/>
                </mxCell>
                <mxCell id="40" value="+ nome" style="text;strokeColor=none;align=center;fillColor=none;html=1;verticalAlign=middle;whiteSpace=wrap;rounded=0;shadow=0;sketch=0;" parent="38" vertex="1">
                    <mxGeometry y="70" width="60" height="30" as="geometry"/>
                </mxCell>
                <mxCell id="41" value="- telefone" style="text;strokeColor=none;align=center;fillColor=none;html=1;verticalAlign=middle;whiteSpace=wrap;rounded=0;shadow=0;sketch=0;" parent="38" vertex="1">
                    <mxGeometry x="10" y="100" width="60" height="30" as="geometry"/>
                </mxCell>
                <mxCell id="42" value="- endereco" style="text;strokeColor=none;align=center;fillColor=none;html=1;verticalAlign=middle;whiteSpace=wrap;rounded=0;shadow=0;sketch=0;" parent="38" vertex="1">
                    <mxGeometry x="10" y="130" width="60" height="30" as="geometry"/>
                </mxCell>
                <mxCell id="66" value="" style="edgeStyle=elbowEdgeStyle;html=1;" parent="1" source="43" edge="1">
                    <mxGeometry relative="1" as="geometry">
                        <mxPoint x="520" y="335" as="targetPoint"/>
                    </mxGeometry>
                </mxCell>
                <mxCell id="43" value="Produto" style="swimlane;whiteSpace=wrap;html=1;rounded=1;shadow=0;sketch=0;" parent="1" vertex="1">
                    <mxGeometry x="600" y="240" width="160" height="190" as="geometry">
                        <mxRectangle x="600" y="240" width="90" height="30" as="alternateBounds"/>
                    </mxGeometry>
                </mxCell>
                <mxCell id="44" value="id_produto" style="text;strokeColor=none;align=center;fillColor=none;html=1;verticalAlign=middle;whiteSpace=wrap;rounded=0;shadow=0;sketch=0;" parent="43" vertex="1">
                    <mxGeometry x="20" y="40" width="60" height="30" as="geometry"/>
                </mxCell>
                <mxCell id="45" value="+ descricao" style="text;strokeColor=none;align=center;fillColor=none;html=1;verticalAlign=middle;whiteSpace=wrap;rounded=0;shadow=0;sketch=0;" parent="43" vertex="1">
                    <mxGeometry x="20" y="70" width="70" height="30" as="geometry"/>
                </mxCell>
                <mxCell id="46" value="+ quantidade_estoque" style="text;strokeColor=none;align=center;fillColor=none;html=1;verticalAlign=middle;whiteSpace=wrap;rounded=0;shadow=0;sketch=0;" parent="43" vertex="1">
                    <mxGeometry x="20" y="100" width="130" height="30" as="geometry"/>
                </mxCell>
                <mxCell id="47" value="+ preco_unitario" style="text;strokeColor=none;align=center;fillColor=none;html=1;verticalAlign=middle;whiteSpace=wrap;rounded=0;shadow=0;sketch=0;" parent="43" vertex="1">
                    <mxGeometry x="10" y="130" width="130" height="30" as="geometry"/>
                </mxCell>
                <mxCell id="67" value="1,n" style="text;strokeColor=none;align=center;fillColor=none;html=1;verticalAlign=middle;whiteSpace=wrap;rounded=0;shadow=0;sketch=0;" parent="1" vertex="1">
                    <mxGeometry x="260" y="300" width="60" height="30" as="geometry"/>
                </mxCell>
                <mxCell id="68" value="1,n" style="text;strokeColor=none;align=center;fillColor=none;html=1;verticalAlign=middle;whiteSpace=wrap;rounded=0;shadow=0;sketch=0;" parent="1" vertex="1">
                    <mxGeometry x="530" y="300" width="60" height="30" as="geometry"/>
                </mxCell>
                <mxCell id="72" value="Usuario" style="swimlane;whiteSpace=wrap;html=1;rounded=1;shadow=0;sketch=0;" vertex="1" parent="1">
                    <mxGeometry x="334" y="20" width="160" height="190" as="geometry">
                        <mxRectangle x="90" y="240" width="80" height="30" as="alternateBounds"/>
                    </mxGeometry>
                </mxCell>
                <mxCell id="73" value="id_usuario" style="text;strokeColor=none;align=center;fillColor=none;html=1;verticalAlign=middle;whiteSpace=wrap;rounded=0;shadow=0;sketch=0;" vertex="1" parent="72">
                    <mxGeometry x="10" y="30" width="60" height="30" as="geometry"/>
                </mxCell>
                <mxCell id="74" value="+ nome" style="text;strokeColor=none;align=center;fillColor=none;html=1;verticalAlign=middle;whiteSpace=wrap;rounded=0;shadow=0;sketch=0;" vertex="1" parent="72">
                    <mxGeometry y="60" width="60" height="30" as="geometry"/>
                </mxCell>
                <mxCell id="75" value="- email&amp;nbsp;" style="text;strokeColor=none;align=center;fillColor=none;html=1;verticalAlign=middle;whiteSpace=wrap;rounded=0;shadow=0;sketch=0;" vertex="1" parent="72">
                    <mxGeometry x="10" y="90" width="60" height="30" as="geometry"/>
                </mxCell>
                <mxCell id="76" value="- senha" style="text;strokeColor=none;align=center;fillColor=none;html=1;verticalAlign=middle;whiteSpace=wrap;rounded=0;shadow=0;sketch=0;" vertex="1" parent="72">
                    <mxGeometry x="10" y="120" width="60" height="30" as="geometry"/>
                </mxCell>
            </root>
        </mxGraphModel>
    </diagram>
</mxfile>